<mxfile host="app.diagrams.net" modified="2024-08-16T02:02:31.584Z" agent="Mozilla/5.0 (Macintosh; Intel Mac OS X 10_15_7) AppleWebKit/537.36 (KHTML, like Gecko) Chrome/126.0.0.0 Safari/537.36 Edg/126.0.0.0" version="24.6.4" etag="nhR3MyCukc_kCp9uMxT1" type="github">
  <diagram name="第 1 页" id="oYnfKDRTbxo7hR4BHTge">
    <mxGraphModel>
      <root>
        <mxCell id="0" />
        <mxCell id="1" parent="0" />
      </root>
    </mxGraphModel>
  </diagram>
</mxfile>
